<svg height="1837.5" style="background-color:White" viewBox="-22.5 52.5 2155 1957.5" width="1850" xmlns="http://www.w3.org/2000/svg">
<style>
.species { font: italic ; font-size: 40px; fill: orange; } .gene_0 { font-size: 10px; fill:rgb(112, 91, 234); } 
</style>
<g transform="translate(  -22.5 1867.5) rotate(-90 0 0 ) ">
<text class="species" transform="rotate(90 1309.6875,217.5)" x="1324.6875" y="237.5">
Gnathostomata
</text>
<path d="M924.375,378 L924.375,120 L1254.1875,120 M1044.375,378 L1044.375,315 L1309.6875,315" fill="none" opacity="0.9" stroke="pink" stroke-width="6"/>
<text class="species" transform="rotate(90 984.375,442.5)" x="999.375" y="462.5">
Euteleostomi
</text>
<path d="M603.75,573 L603.75,375 L921.375,375 M723.75,573 L723.75,510 L984.375,510" fill="none" opacity="0.9" stroke="pink" stroke-width="6"/>
<text class="species" transform="rotate(90 663.75,630)" x="678.75" y="650">
Tetrapoda
</text>
<path d="M360,753 L360,570 L600.75,570 M450,753 L450,690 L663.75,690" fill="none" opacity="0.9" stroke="pink" stroke-width="6"/>
<text class="species" transform="rotate(90 405,802.5)" x="420" y="822.5">
Amniota
</text>
<path d="M161.25,918 L161.25,750 L357,750 M221.25,918 L221.25,855 L405,855" fill="none" opacity="0.9" stroke="pink" stroke-width="6"/>
<text class="species" transform="rotate(90 191.25,945)" x="206.25" y="965">
Boreoeutheria
</text>
<path d="M52.5,1038 L52.5,915 L158.25,915 M97.5,1038 L97.5,975 L191.25,975" fill="none" opacity="0.9" stroke="pink" stroke-width="6"/>
<text class="species" transform="rotate(90 75,1057.5)" x="90" y="1077.5">
Laurasiatheria
</text>
<path d="M-22.5,1180.5 L-22.5,1035 L49.5,1035 M22.5,1180.5 L22.5,1080 L75,1080" fill="none" opacity="0.9" stroke="pink" stroke-width="6"/>
<path d="M-22.5,1180.5 L-22.5,1252.5 L22.5,1252.5 L22.5,1180.5" fill="none" opacity="0.9" stroke="pink" stroke-width="6"/>
<text class="species" transform="rotate(90 0,1200)" x="-15" y="1167.5">
E.caballus
</text>
<path d="M172.5,1180.5 L172.5,1035 L100.5,1035 M127.5,1180.5 L127.5,1080 L75,1080" fill="none" opacity="0.9" stroke="pink" stroke-width="6"/>
<path d="M127.5,1180.5 L127.5,1252.5 L172.5,1252.5 L172.5,1180.5" fill="none" opacity="0.9" stroke="pink" stroke-width="6"/>
<text class="species" transform="rotate(90 150,1200)" x="135" y="1167.5">
F.catus
</text>
<path d="M337.5,1165.5 L337.5,915 L224.25,915 M277.5,1165.5 L277.5,975 L191.25,975" fill="none" opacity="0.9" stroke="pink" stroke-width="6"/>
<path d="M277.5,1165.5 L277.5,1252.5 L337.5,1252.5 L337.5,1165.5" fill="none" opacity="0.9" stroke="pink" stroke-width="6"/>
<text class="species" transform="rotate(90 307.5,1200)" x="292.5" y="1160">
H.sapiens
</text>
<path d="M648.75,918 L648.75,750 L453,750 M588.75,918 L588.75,855 L405,855" fill="none" opacity="0.9" stroke="pink" stroke-width="6"/>
<text class="species" transform="rotate(90 618.75,945)" x="633.75" y="965">
Sauria
</text>
<path d="M480,1038 L480,915 L585.75,915 M540,1038 L540,975 L618.75,975" fill="none" opacity="0.9" stroke="pink" stroke-width="6"/>
<text class="species" transform="rotate(90 510,1065)" x="525" y="1085">
Archelosauria
</text>
<path d="M412.5,1180.5 L412.5,1035 L477,1035 M457.5,1180.5 L457.5,1095 L510,1095" fill="none" opacity="0.9" stroke="pink" stroke-width="6"/>
<path d="M412.5,1180.5 L412.5,1252.5 L457.5,1252.5 L457.5,1180.5" fill="none" opacity="0.9" stroke="pink" stroke-width="6"/>
<text class="species" transform="rotate(90 435,1200)" x="420" y="1167.5">
G.gallus
</text>
<path d="M607.5,1180.5 L607.5,1035 L543,1035 M562.5,1180.5 L562.5,1095 L510,1095" fill="none" opacity="0.9" stroke="pink" stroke-width="6"/>
<path d="M562.5,1180.5 L562.5,1252.5 L607.5,1252.5 L607.5,1180.5" fill="none" opacity="0.9" stroke="pink" stroke-width="6"/>
<text class="species" transform="rotate(90 585,1200)" x="570" y="1167.5">
C.mydas
</text>
<path d="M757.5,1173 L757.5,915 L651.75,915 M697.5,1173 L697.5,975 L618.75,975" fill="none" opacity="0.9" stroke="pink" stroke-width="6"/>
<path d="M697.5,1173 L697.5,1252.5 L757.5,1252.5 L757.5,1173" fill="none" opacity="0.9" stroke="pink" stroke-width="6"/>
<text class="species" transform="rotate(90 727.5,1200)" x="712.5" y="1160">
S.townsendi
</text>
<path d="M967.5,1150.5 L967.5,570 L726.75,570 M877.5,1150.5 L877.5,690 L663.75,690" fill="none" opacity="0.9" stroke="pink" stroke-width="6"/>
<path d="M877.5,1150.5 L877.5,1252.5 L967.5,1252.5 L967.5,1150.5" fill="none" opacity="0.9" stroke="pink" stroke-width="6"/>
<text class="species" transform="rotate(90 922.5,1200)" x="907.5" y="1145">
X.laevis
</text>
<path d="M1365,573 L1365,375 L1047.375,375 M1245,573 L1245,510 L984.375,510" fill="none" opacity="0.9" stroke="pink" stroke-width="6"/>
<text class="species" transform="rotate(90 1305,630)" x="1320" y="650">
Clupeocephala
</text>
<path d="M1140,753 L1140,570 L1242,570 M1200,753 L1200,690 L1305,690" fill="none" opacity="0.9" stroke="pink" stroke-width="6"/>
<text class="species" transform="rotate(90 1170,780)" x="1185" y="800">
Euteleosteomorpha
</text>
<path d="M1035,1173 L1035,750 L1137,750 M1095,1173 L1095,810 L1170,810" fill="none" opacity="0.9" stroke="pink" stroke-width="6"/>
<path d="M1035,1173 L1035,1252.5 L1095,1252.5 L1095,1173" fill="none" opacity="0.9" stroke="pink" stroke-width="6"/>
<text class="species" transform="rotate(90 1065,1200)" x="1050" y="1160">
G.aculeatus
</text>
<path d="M1312.5,1158 L1312.5,750 L1203,750 M1237.5,1158 L1237.5,810 L1170,810" fill="none" opacity="0.9" stroke="pink" stroke-width="6"/>
<path d="M1237.5,1158 L1237.5,1252.5 L1312.5,1252.5 L1312.5,1158" fill="none" opacity="0.9" stroke="pink" stroke-width="6"/>
<text class="species" transform="rotate(90 1275,1200)" x="1260" y="1152.5">
S.salar
</text>
<path d="M1470,1173 L1470,570 L1368,570 M1410,1173 L1410,690 L1305,690" fill="none" opacity="0.9" stroke="pink" stroke-width="6"/>
<path d="M1410,1173 L1410,1252.5 L1470,1252.5 L1470,1173" fill="none" opacity="0.9" stroke="pink" stroke-width="6"/>
<text class="species" transform="rotate(90 1440,1200)" x="1425" y="1160">
D.rerio
</text>
<path d="M1687.5,1150.5 L1687.5,120 L1365.1875,120 M1582.5,1150.5 L1582.5,315 L1309.6875,315" fill="none" opacity="0.9" stroke="pink" stroke-width="6"/>
<path d="M1582.5,1150.5 L1582.5,1252.5 L1687.5,1252.5 L1687.5,1150.5" fill="none" opacity="0.9" stroke="pink" stroke-width="6"/>
<text class="species" transform="rotate(90 1635,1200)" x="1620" y="1137.5">
C.carcharias
</text>
<text class="species" transform="rotate(90 1747.5,1200)" x="1732.5" y="1182.5">
FREE_LIVING
</text>
<path d="M1264.6875,121.5 l-6,-6 l12,0 z" fill="rgb(112, 91, 234)" opacity="0.9" stroke="rgb(112, 91, 234)" stroke-width="1"/>
<path d="M1261.6875,124.5 l0,6 l6,0 l0,-6 z" fill="rgb(112, 91, 234)" opacity="0.9" stroke="rgb(112, 91, 234)" stroke-width="3"/>
<text class="gene_0" transform="rotate(90 1264.6875,127.5)" x="1274.6875" y="127.5">
n107
</text>
<path d="M1264.6875,142.5 L1264.6875,127.5 L1264.6875,127.5" fill="none" opacity="0.9" stroke="rgb(112, 91, 234)" stroke-width="3"/>
<path d="M1261.6875,139.5 l0,6 l6,0 l0,-6 z" fill="rgb(112, 91, 234)" opacity="0.9" stroke="rgb(112, 91, 234)" stroke-width="3"/>
<text class="gene_0" transform="rotate(90 1264.6875,142.5)" x="1274.6875" y="142.5">
n83
</text>
<path d="M1264.6875,157.5 L1264.6875,142.5 L1264.6875,142.5" fill="none" opacity="0.9" stroke="rgb(112, 91, 234)" stroke-width="3"/>
<path d="M1261.6875,154.5 l0,6 l6,0 l0,-6 z" fill="rgb(112, 91, 234)" opacity="0.9" stroke="rgb(112, 91, 234)" stroke-width="3"/>
<text class="gene_0" transform="rotate(90 1264.6875,157.5)" x="1274.6875" y="157.5">
n59
</text>
<path d="M1264.6875,172.5 L1264.6875,157.5 L1264.6875,157.5" fill="none" opacity="0.9" stroke="rgb(112, 91, 234)" stroke-width="3"/>
<circle cx="1264.6875" cy="172.5" fill="rgb(112, 91, 234)" opacity="0.9" r="4.5" stroke="rgb(112, 91, 234)" stroke-width="1"/>
<text class="gene_0" transform="rotate(90 1264.6875,172.5)" x="1274.6875" y="172.5">
r73
</text>
<path d="M931.875,382.5 L931.875,172.5 L1264.6875,172.5" fill="none" opacity="0.9" stroke="rgb(112, 91, 234)" stroke-width="3"/>
<circle cx="931.875" cy="382.5" fill="rgb(112, 91, 234)" opacity="0.9" r="4.5" stroke="rgb(112, 91, 234)" stroke-width="1"/>
<text class="gene_0" transform="rotate(90 931.875,382.5)" x="941.875" y="382.5">
r71
</text>
<path d="M611.25,577.5 L611.25,382.5 L931.875,382.5" fill="none" opacity="0.9" stroke="rgb(112, 91, 234)" stroke-width="3"/>
<circle cx="611.25" cy="577.5" fill="rgb(112, 91, 234)" opacity="0.9" r="4.5" stroke="rgb(112, 91, 234)" stroke-width="1"/>
<text class="gene_0" transform="rotate(90 611.25,577.5)" x="621.25" y="577.5">
r69
</text>
<path d="M367.5,757.5 L367.5,577.5 L611.25,577.5" fill="none" opacity="0.9" stroke="rgb(112, 91, 234)" stroke-width="3"/>
<circle cx="367.5" cy="757.5" fill="rgb(112, 91, 234)" opacity="0.9" r="4.5" stroke="rgb(112, 91, 234)" stroke-width="1"/>
<text class="gene_0" transform="rotate(90 367.5,757.5)" x="377.5" y="757.5">
n51
</text>
<path d="M168.75,922.5 L168.75,757.5 L367.5,757.5" fill="none" opacity="0.9" stroke="rgb(112, 91, 234)" stroke-width="3"/>
<circle cx="168.75" cy="922.5" fill="rgb(112, 91, 234)" opacity="0.9" r="4.5" stroke="rgb(112, 91, 234)" stroke-width="1"/>
<text class="gene_0" transform="rotate(90 168.75,922.5)" x="178.75" y="922.5">
n47
</text>
<path d="M60,1042.5 L60,922.5 L168.75,922.5" fill="none" opacity="0.9" stroke="rgb(112, 91, 234)" stroke-width="3"/>
<circle cx="60" cy="1042.5" fill="rgb(112, 91, 234)" opacity="0.9" r="4.5" stroke="rgb(112, 91, 234)" stroke-width="1"/>
<text class="gene_0" transform="rotate(90 60,1042.5)" x="70" y="1042.5">
n45
</text>
<path d="M165,1252.5 L165,1042.5 L60,1042.5" fill="none" opacity="0.9" stroke="rgb(112, 91, 234)" stroke-width="3"/>
<path d="M159,1252.5 a3,3,0,0,1,12,0 z" fill="rgb(112, 91, 234)" opacity="0.9" stroke="rgb(112, 91, 234)" stroke-width="1"/>
<text class="gene_0" transform="rotate(90 160,1267.5)" x="160" y="1267.5">
F.catus_METTL8_mRNA_N3methylcytidine_methyltransferase_METTL8_iso
</text>
<path d="M-15,1252.5 L-15,1042.5 L60,1042.5" fill="none" opacity="0.9" stroke="rgb(112, 91, 234)" stroke-width="3"/>
<path d="M-21,1252.5 a3,3,0,0,1,12,0 z" fill="rgb(112, 91, 234)" opacity="0.9" stroke="rgb(112, 91, 234)" stroke-width="1"/>
<text class="gene_0" transform="rotate(90 -20,1267.5)" x="-20" y="1267.5">
E.caballus_METTL8_methyltransferaselike_protein_8_isoform_X1
</text>
<path d="M330,1252.5 L330,922.5 L168.75,922.5" fill="none" opacity="0.9" stroke="rgb(112, 91, 234)" stroke-width="3"/>
<path d="M324,1252.5 a3,3,0,0,1,12,0 z" fill="rgb(112, 91, 234)" opacity="0.9" stroke="rgb(112, 91, 234)" stroke-width="1"/>
<text class="gene_0" transform="rotate(90 325,1267.5)" x="325" y="1267.5">
H.sapiens_METTL8_tRNA_N3methylcytidine_methyltransferase_METTL8_m
</text>
<path d="M641.25,922.5 L641.25,757.5 L367.5,757.5" fill="none" opacity="0.9" stroke="rgb(112, 91, 234)" stroke-width="3"/>
<circle cx="641.25" cy="922.5" fill="rgb(112, 91, 234)" opacity="0.9" r="4.5" stroke="rgb(112, 91, 234)" stroke-width="1"/>
<text class="gene_0" transform="rotate(90 641.25,922.5)" x="651.25" y="922.5">
r67
</text>
<path d="M487.5,1042.5 L487.5,922.5 L641.25,922.5" fill="none" opacity="0.9" stroke="rgb(112, 91, 234)" stroke-width="3"/>
<circle cx="487.5" cy="1042.5" fill="rgb(112, 91, 234)" opacity="0.9" r="4.5" stroke="rgb(112, 91, 234)" stroke-width="1"/>
<text class="gene_0" transform="rotate(90 487.5,1042.5)" x="497.5" y="1042.5">
n50
</text>
<path d="M420,1252.5 L420,1042.5 L487.5,1042.5" fill="none" opacity="0.9" stroke="rgb(112, 91, 234)" stroke-width="3"/>
<path d="M414,1252.5 a3,3,0,0,1,12,0 z" fill="rgb(112, 91, 234)" opacity="0.9" stroke="rgb(112, 91, 234)" stroke-width="1"/>
<text class="gene_0" transform="rotate(90 415,1267.5)" x="415" y="1267.5">
G.gallus_METTL8_mRNA_N3methylcytidine_methyltransferase_METTL8_is
</text>
<path d="M600,1252.5 L600,1042.5 L487.5,1042.5" fill="none" opacity="0.9" stroke="rgb(112, 91, 234)" stroke-width="3"/>
<path d="M594,1252.5 a3,3,0,0,1,12,0 z" fill="rgb(112, 91, 234)" opacity="0.9" stroke="rgb(112, 91, 234)" stroke-width="1"/>
<text class="gene_0" transform="rotate(90 595,1267.5)" x="595" y="1267.5">
C.mydas_METTL8_mRNA_N3methylcytidine_methyltransferase_METTL8_iso
</text>
<path d="M750,1177.5 L750,922.5 L641.25,922.5" fill="none" opacity="0.9" stroke="rgb(112, 91, 234)" stroke-width="3"/>
<path d="M750,1171.5 l0,12 M744,1177.5 l12,0" fill="rgb(112, 91, 234)" opacity="0.9" stroke="rgb(112, 91, 234)" stroke-width="3" transform="rotate(45 750 1177.5)"/>
<text class="gene_0" transform="rotate(90 750,1177.5)" x="760" y="1177.5">
S.townsendi*LOST
</text>
<path d="M960,1155 L960,577.5 L611.25,577.5" fill="none" opacity="0.9" stroke="rgb(112, 91, 234)" stroke-width="3"/>
<path d="M960,1149 l0,12 M954,1155 l12,0" fill="rgb(112, 91, 234)" opacity="0.9" stroke="rgb(112, 91, 234)" stroke-width="3" transform="rotate(45 960 1155)"/>
<text class="gene_0" transform="rotate(90 960,1155)" x="970" y="1155">
X.laevis*LOST
</text>
<path d="M1357.5,577.5 L1357.5,382.5 L931.875,382.5" fill="none" opacity="0.9" stroke="rgb(112, 91, 234)" stroke-width="3"/>
<path d="M1357.5,571.5 l0,12 M1351.5,577.5 l12,0" fill="rgb(112, 91, 234)" opacity="0.9" stroke="rgb(112, 91, 234)" stroke-width="3" transform="rotate(45 1357.5 577.5)"/>
<text class="gene_0" transform="rotate(90 1357.5,577.5)" x="1367.5" y="577.5">
Clupeocephala*LOST
</text>
<path d="M1680,1155 L1680,172.5 L1264.6875,172.5" fill="none" opacity="0.9" stroke="rgb(112, 91, 234)" stroke-width="3"/>
<path d="M1680,1149 l0,12 M1674,1155 l12,0" fill="rgb(112, 91, 234)" opacity="0.9" stroke="rgb(112, 91, 234)" stroke-width="3" transform="rotate(45 1680 1155)"/>
<text class="gene_0" transform="rotate(90 1680,1155)" x="1690" y="1155">
C.carcharias*LOST
</text>
<path d="M1279.6875,187.5 L1279.6875,157.5 L1264.6875,157.5" fill="none" opacity="0.9" stroke="rgb(112, 91, 234)" stroke-width="3"/>
<circle cx="1279.6875" cy="187.5" fill="rgb(112, 91, 234)" opacity="0.9" r="4.5" stroke="rgb(112, 91, 234)" stroke-width="1"/>
<text class="gene_0" transform="rotate(90 1279.6875,187.5)" x="1289.6875" y="187.5">
n58
</text>
<path d="M946.875,397.5 L946.875,187.5 L1279.6875,187.5" fill="none" opacity="0.9" stroke="rgb(112, 91, 234)" stroke-width="3"/>
<circle cx="946.875" cy="397.5" fill="rgb(112, 91, 234)" opacity="0.9" r="4.5" stroke="rgb(112, 91, 234)" stroke-width="1"/>
<text class="gene_0" transform="rotate(90 946.875,397.5)" x="956.875" y="397.5">
r75
</text>
<path d="M1342.5,592.5 L1342.5,397.5 L946.875,397.5" fill="none" opacity="0.9" stroke="rgb(112, 91, 234)" stroke-width="3"/>
<circle cx="1342.5" cy="592.5" fill="rgb(112, 91, 234)" opacity="0.9" r="4.5" stroke="rgb(112, 91, 234)" stroke-width="1"/>
<text class="gene_0" transform="rotate(90 1342.5,592.5)" x="1352.5" y="592.5">
n56
</text>
<path d="M1147.5,757.5 L1147.5,592.5 L1342.5,592.5" fill="none" opacity="0.9" stroke="rgb(112, 91, 234)" stroke-width="3"/>
<circle cx="1147.5" cy="757.5" fill="rgb(112, 91, 234)" opacity="0.9" r="4.5" stroke="rgb(112, 91, 234)" stroke-width="1"/>
<text class="gene_0" transform="rotate(90 1147.5,757.5)" x="1157.5" y="757.5">
n54
</text>
<path d="M1305,1252.5 L1305,757.5 L1147.5,757.5" fill="none" opacity="0.9" stroke="rgb(112, 91, 234)" stroke-width="3"/>
<path d="M1299,1252.5 a3,3,0,0,1,12,0 z" fill="rgb(112, 91, 234)" opacity="0.9" stroke="rgb(112, 91, 234)" stroke-width="1"/>
<text class="gene_0" transform="rotate(90 1300,1267.5)" x="1300" y="1267.5">
S.salar_mettl8_mRNA_N3methylcytidine_methyltransferase_METTL8
</text>
<path d="M1042.5,1252.5 L1042.5,757.5 L1147.5,757.5" fill="none" opacity="0.9" stroke="rgb(112, 91, 234)" stroke-width="3"/>
<path d="M1036.5,1252.5 a3,3,0,0,1,12,0 z" fill="rgb(112, 91, 234)" opacity="0.9" stroke="rgb(112, 91, 234)" stroke-width="1"/>
<text class="gene_0" transform="rotate(90 1037.5,1267.5)" x="1037.5" y="1267.5">
G.aculeatus_mettl8_mRNA_N3methylcytidine_methyltransferase_METTL8
</text>
<path d="M1462.5,1252.5 L1462.5,592.5 L1342.5,592.5" fill="none" opacity="0.9" stroke="rgb(112, 91, 234)" stroke-width="3"/>
<path d="M1456.5,1252.5 a3,3,0,0,1,12,0 z" fill="rgb(112, 91, 234)" opacity="0.9" stroke="rgb(112, 91, 234)" stroke-width="1"/>
<text class="gene_0" transform="rotate(90 1457.5,1267.5)" x="1457.5" y="1267.5">
D.rerio_mettl8_mRNA_N3methylcytidine_methyltransferase_METTL8
</text>
<path d="M626.25,592.5 L626.25,397.5 L946.875,397.5" fill="none" opacity="0.9" stroke="rgb(112, 91, 234)" stroke-width="3"/>
<path d="M626.25,586.5 l0,12 M620.25,592.5 l12,0" fill="rgb(112, 91, 234)" opacity="0.9" stroke="rgb(112, 91, 234)" stroke-width="3" transform="rotate(45 626.25 592.5)"/>
<text class="gene_0" transform="rotate(90 626.25,592.5)" x="636.25" y="592.5">
Tetrapoda*LOST
</text>
<path d="M1665,1252.5 L1665,187.5 L1279.6875,187.5" fill="none" opacity="0.9" stroke="rgb(112, 91, 234)" stroke-width="3"/>
<path d="M1659,1252.5 a3,3,0,0,1,12,0 z" fill="rgb(112, 91, 234)" opacity="0.9" stroke="rgb(112, 91, 234)" stroke-width="1"/>
<text class="gene_0" transform="rotate(90 1660,1267.5)" x="1660" y="1267.5">
C.carcharias_mettl8_mRNA_N3methylcytidine_methyltransferase_METTL
</text>
<path d="M1294.6875,202.5 L1294.6875,142.5 L1264.6875,142.5" fill="none" opacity="0.9" stroke="rgb(112, 91, 234)" stroke-width="3"/>
<circle cx="1294.6875" cy="202.5" fill="rgb(112, 91, 234)" opacity="0.9" r="4.5" stroke="rgb(112, 91, 234)" stroke-width="1"/>
<text class="gene_0" transform="rotate(90 1294.6875,202.5)" x="1304.6875" y="202.5">
n82
</text>
<path d="M961.875,412.5 L961.875,202.5 L1294.6875,202.5" fill="none" opacity="0.9" stroke="rgb(112, 91, 234)" stroke-width="3"/>
<path d="M958.875,409.5 l0,6 l6,0 l0,-6 z" fill="rgb(112, 91, 234)" opacity="0.9" stroke="rgb(112, 91, 234)" stroke-width="3"/>
<text class="gene_0" transform="rotate(90 961.875,412.5)" x="971.875" y="412.5">
n80
</text>
<path d="M961.875,427.5 L961.875,412.5 L961.875,412.5" fill="none" opacity="0.9" stroke="rgb(112, 91, 234)" stroke-width="3"/>
<circle cx="961.875" cy="427.5" fill="rgb(112, 91, 234)" opacity="0.9" r="4.5" stroke="rgb(112, 91, 234)" stroke-width="1"/>
<text class="gene_0" transform="rotate(90 961.875,427.5)" x="971.875" y="427.5">
n66
</text>
<path d="M1327.5,607.5 L1327.5,427.5 L961.875,427.5" fill="none" opacity="0.9" stroke="rgb(112, 91, 234)" stroke-width="3"/>
<circle cx="1327.5" cy="607.5" fill="rgb(112, 91, 234)" opacity="0.9" r="4.5" stroke="rgb(112, 91, 234)" stroke-width="1"/>
<text class="gene_0" transform="rotate(90 1327.5,607.5)" x="1337.5" y="607.5">
n64
</text>
<path d="M1162.5,772.5 L1162.5,607.5 L1327.5,607.5" fill="none" opacity="0.9" stroke="rgb(112, 91, 234)" stroke-width="3"/>
<circle cx="1162.5" cy="772.5" fill="rgb(112, 91, 234)" opacity="0.9" r="4.5" stroke="rgb(112, 91, 234)" stroke-width="1"/>
<text class="gene_0" transform="rotate(90 1162.5,772.5)" x="1172.5" y="772.5">
n62
</text>
<path d="M1290,1252.5 L1290,772.5 L1162.5,772.5" fill="none" opacity="0.9" stroke="rgb(112, 91, 234)" stroke-width="3"/>
<path d="M1284,1252.5 a3,3,0,0,1,12,0 z" fill="rgb(112, 91, 234)" opacity="0.9" stroke="rgb(112, 91, 234)" stroke-width="1"/>
<text class="gene_0" transform="rotate(90 1285,1267.5)" x="1285" y="1267.5">
S.salar_mettl2a_tRNA_N3methylcytidine_methyltransferase_METTL2
</text>
<path d="M1057.5,1252.5 L1057.5,772.5 L1162.5,772.5" fill="none" opacity="0.9" stroke="rgb(112, 91, 234)" stroke-width="3"/>
<path d="M1051.5,1252.5 a3,3,0,0,1,12,0 z" fill="rgb(112, 91, 234)" opacity="0.9" stroke="rgb(112, 91, 234)" stroke-width="1"/>
<text class="gene_0" transform="rotate(90 1052.5,1267.5)" x="1052.5" y="1267.5">
G.aculeatus_mettl2a_tRNA_N3methylcytidine_methyltransferase_METTL
</text>
<path d="M1447.5,1252.5 L1447.5,607.5 L1327.5,607.5" fill="none" opacity="0.9" stroke="rgb(112, 91, 234)" stroke-width="3"/>
<path d="M1441.5,1252.5 a3,3,0,0,1,12,0 z" fill="rgb(112, 91, 234)" opacity="0.9" stroke="rgb(112, 91, 234)" stroke-width="1"/>
<text class="gene_0" transform="rotate(90 1442.5,1267.5)" x="1442.5" y="1267.5">
D.rerio_mettl2a_tRNA_N3methylcytidine_methyltransferase_METTL2
</text>
<path d="M641.25,607.5 L641.25,427.5 L961.875,427.5" fill="none" opacity="0.9" stroke="rgb(112, 91, 234)" stroke-width="3"/>
<circle cx="641.25" cy="607.5" fill="rgb(112, 91, 234)" opacity="0.9" r="4.5" stroke="rgb(112, 91, 234)" stroke-width="1"/>
<text class="gene_0" transform="rotate(90 641.25,607.5)" x="651.25" y="607.5">
r77
</text>
<path d="M945,1252.5 L945,607.5 L641.25,607.5" fill="none" opacity="0.9" stroke="rgb(112, 91, 234)" stroke-width="3"/>
<path d="M939,1252.5 a3,3,0,0,1,12,0 z" fill="rgb(112, 91, 234)" opacity="0.9" stroke="rgb(112, 91, 234)" stroke-width="1"/>
<text class="gene_0" transform="rotate(90 940,1267.5)" x="940" y="1267.5">
X.laevis_mettl2b.L_tRNA_N3methylcytidine_methyltransferase_METTL2
</text>
<path d="M382.5,772.5 L382.5,607.5 L641.25,607.5" fill="none" opacity="0.9" stroke="rgb(112, 91, 234)" stroke-width="3"/>
<path d="M382.5,766.5 l0,12 M376.5,772.5 l12,0" fill="rgb(112, 91, 234)" opacity="0.9" stroke="rgb(112, 91, 234)" stroke-width="3" transform="rotate(45 382.5 772.5)"/>
<text class="gene_0" transform="rotate(90 382.5,772.5)" x="392.5" y="772.5">
Amniota*LOST
</text>
<path d="M976.875,442.5 L976.875,412.5 L961.875,412.5" fill="none" opacity="0.9" stroke="rgb(112, 91, 234)" stroke-width="3"/>
<circle cx="976.875" cy="442.5" fill="rgb(112, 91, 234)" opacity="0.9" r="4.5" stroke="rgb(112, 91, 234)" stroke-width="1"/>
<text class="gene_0" transform="rotate(90 976.875,442.5)" x="986.875" y="442.5">
r81
</text>
<path d="M656.25,622.5 L656.25,442.5 L976.875,442.5" fill="none" opacity="0.9" stroke="rgb(112, 91, 234)" stroke-width="3"/>
<circle cx="656.25" cy="622.5" fill="rgb(112, 91, 234)" opacity="0.9" r="4.5" stroke="rgb(112, 91, 234)" stroke-width="1"/>
<text class="gene_0" transform="rotate(90 656.25,622.5)" x="666.25" y="622.5">
r79
</text>
<path d="M397.5,787.5 L397.5,622.5 L656.25,622.5" fill="none" opacity="0.9" stroke="rgb(112, 91, 234)" stroke-width="3"/>
<circle cx="397.5" cy="787.5" fill="rgb(112, 91, 234)" opacity="0.9" r="4.5" stroke="rgb(112, 91, 234)" stroke-width="1"/>
<text class="gene_0" transform="rotate(90 397.5,787.5)" x="407.5" y="787.5">
n79
</text>
<path d="M626.25,937.5 L626.25,787.5 L397.5,787.5" fill="none" opacity="0.9" stroke="rgb(112, 91, 234)" stroke-width="3"/>
<circle cx="626.25" cy="937.5" fill="rgb(112, 91, 234)" opacity="0.9" r="4.5" stroke="rgb(112, 91, 234)" stroke-width="1"/>
<text class="gene_0" transform="rotate(90 626.25,937.5)" x="636.25" y="937.5">
n71
</text>
<path d="M502.5,1057.5 L502.5,937.5 L626.25,937.5" fill="none" opacity="0.9" stroke="rgb(112, 91, 234)" stroke-width="3"/>
<circle cx="502.5" cy="1057.5" fill="rgb(112, 91, 234)" opacity="0.9" r="4.5" stroke="rgb(112, 91, 234)" stroke-width="1"/>
<text class="gene_0" transform="rotate(90 502.5,1057.5)" x="512.5" y="1057.5">
n69
</text>
<path d="M435,1252.5 L435,1057.5 L502.5,1057.5" fill="none" opacity="0.9" stroke="rgb(112, 91, 234)" stroke-width="3"/>
<path d="M429,1252.5 a3,3,0,0,1,12,0 z" fill="rgb(112, 91, 234)" opacity="0.9" stroke="rgb(112, 91, 234)" stroke-width="1"/>
<text class="gene_0" transform="rotate(90 430,1267.5)" x="430" y="1267.5">
G.gallus_METTL2B_tRNA_N3methylcytidine_methyltransferase_METTL2
</text>
<path d="M585,1252.5 L585,1057.5 L502.5,1057.5" fill="none" opacity="0.9" stroke="rgb(112, 91, 234)" stroke-width="3"/>
<path d="M579,1252.5 a3,3,0,0,1,12,0 z" fill="rgb(112, 91, 234)" opacity="0.9" stroke="rgb(112, 91, 234)" stroke-width="1"/>
<text class="gene_0" transform="rotate(90 580,1267.5)" x="580" y="1267.5">
C.mydas_METTL2A_tRNA_N3methylcytidine_methyltransferase_METTL2A_i
</text>
<path d="M735,1252.5 L735,937.5 L626.25,937.5" fill="none" opacity="0.9" stroke="rgb(112, 91, 234)" stroke-width="3"/>
<path d="M729,1252.5 a3,3,0,0,1,12,0 z" fill="rgb(112, 91, 234)" opacity="0.9" stroke="rgb(112, 91, 234)" stroke-width="1"/>
<text class="gene_0" transform="rotate(90 730,1267.5)" x="730" y="1267.5">
S.townsendi_LOC125445239_tRNA_N3methylcytidine_methyltransferase_
</text>
<path d="M183.75,937.5 L183.75,787.5 L397.5,787.5" fill="none" opacity="0.9" stroke="rgb(112, 91, 234)" stroke-width="3"/>
<circle cx="183.75" cy="937.5" fill="rgb(112, 91, 234)" opacity="0.9" r="4.5" stroke="rgb(112, 91, 234)" stroke-width="1"/>
<text class="gene_0" transform="rotate(90 183.75,937.5)" x="193.75" y="937.5">
n78
</text>
<path d="M75,1057.5 L75,937.5 L183.75,937.5" fill="none" opacity="0.9" stroke="rgb(112, 91, 234)" stroke-width="3"/>
<circle cx="75" cy="1057.5" fill="rgb(112, 91, 234)" opacity="0.9" r="4.5" stroke="rgb(112, 91, 234)" stroke-width="1"/>
<text class="gene_0" transform="rotate(90 75,1057.5)" x="85" y="1057.5">
n74
</text>
<path d="M0,1252.5 L0,1057.5 L75,1057.5" fill="none" opacity="0.9" stroke="rgb(112, 91, 234)" stroke-width="3"/>
<path d="M-6,1252.5 a3,3,0,0,1,12,0 z" fill="rgb(112, 91, 234)" opacity="0.9" stroke="rgb(112, 91, 234)" stroke-width="1"/>
<text class="gene_0" transform="rotate(90 -5,1267.5)" x="-5" y="1267.5">
E.caballus_METTL2A_methyltransferaselike_protein_2A
</text>
<path d="M150,1252.5 L150,1057.5 L75,1057.5" fill="none" opacity="0.9" stroke="rgb(112, 91, 234)" stroke-width="3"/>
<path d="M144,1252.5 a3,3,0,0,1,12,0 z" fill="rgb(112, 91, 234)" opacity="0.9" stroke="rgb(112, 91, 234)" stroke-width="1"/>
<text class="gene_0" transform="rotate(90 145,1267.5)" x="145" y="1267.5">
F.catus_METTL2A_tRNA_N3methylcytidine_methyltransferase_METTL2A_i
</text>
<path d="M300,1185 L300,937.5 L183.75,937.5" fill="none" opacity="0.9" stroke="rgb(112, 91, 234)" stroke-width="3"/>
<path d="M297,1182 l0,6 l6,0 l0,-6 z" fill="rgb(112, 91, 234)" opacity="0.9" stroke="rgb(112, 91, 234)" stroke-width="3"/>
<text class="gene_0" transform="rotate(90 300,1185)" x="310" y="1185">
n77
</text>
<path d="M315,1252.5 L315,1185 L300,1185" fill="none" opacity="0.9" stroke="rgb(112, 91, 234)" stroke-width="3"/>
<path d="M309,1252.5 a3,3,0,0,1,12,0 z" fill="rgb(112, 91, 234)" opacity="0.9" stroke="rgb(112, 91, 234)" stroke-width="1"/>
<text class="gene_0" transform="rotate(90 310,1267.5)" x="310" y="1267.5">
H.sapiens_METTL2B_tRNA_N3methylcytidine_methyltransferase_METTL2B
</text>
<path d="M300,1252.5 L300,1185 L300,1185" fill="none" opacity="0.9" stroke="rgb(112, 91, 234)" stroke-width="3"/>
<path d="M294,1252.5 a3,3,0,0,1,12,0 z" fill="rgb(112, 91, 234)" opacity="0.9" stroke="rgb(112, 91, 234)" stroke-width="1"/>
<text class="gene_0" transform="rotate(90 295,1267.5)" x="295" y="1267.5">
H.sapiens_METTL2A_tRNA_N3methylcytidine_methyltransferase_METTL2A
</text>
<path d="M930,1185 L930,622.5 L656.25,622.5" fill="none" opacity="0.9" stroke="rgb(112, 91, 234)" stroke-width="3"/>
<path d="M930,1179 l0,12 M924,1185 l12,0" fill="rgb(112, 91, 234)" opacity="0.9" stroke="rgb(112, 91, 234)" stroke-width="3" transform="rotate(45 930 1185)"/>
<text class="gene_0" transform="rotate(90 930,1185)" x="940" y="1185">
X.laevis*LOST
</text>
<path d="M1312.5,622.5 L1312.5,442.5 L976.875,442.5" fill="none" opacity="0.9" stroke="rgb(112, 91, 234)" stroke-width="3"/>
<path d="M1312.5,616.5 l0,12 M1306.5,622.5 l12,0" fill="rgb(112, 91, 234)" opacity="0.9" stroke="rgb(112, 91, 234)" stroke-width="3" transform="rotate(45 1312.5 622.5)"/>
<text class="gene_0" transform="rotate(90 1312.5,622.5)" x="1322.5" y="622.5">
Clupeocephala*LOST
</text>
<path d="M1650,1252.5 L1650,202.5 L1294.6875,202.5" fill="none" opacity="0.9" stroke="rgb(112, 91, 234)" stroke-width="3"/>
<path d="M1644,1252.5 a3,3,0,0,1,12,0 z" fill="rgb(112, 91, 234)" opacity="0.9" stroke="rgb(112, 91, 234)" stroke-width="1"/>
<text class="gene_0" transform="rotate(90 1645,1267.5)" x="1645" y="1267.5">
C.carcharias_LOC121269257_tRNA_N3methylcytidine_methyltransferase
</text>
<path d="M1309.6875,217.5 L1309.6875,127.5 L1264.6875,127.5" fill="none" opacity="0.9" stroke="rgb(112, 91, 234)" stroke-width="3"/>
<path d="M1306.6875,214.5 l0,6 l6,0 l0,-6 z" fill="rgb(112, 91, 234)" opacity="0.9" stroke="rgb(112, 91, 234)" stroke-width="3"/>
<text class="gene_0" transform="rotate(90 1309.6875,217.5)" x="1319.6875" y="217.5">
n106
</text>
<path d="M1309.6875,232.5 L1309.6875,217.5 L1309.6875,217.5" fill="none" opacity="0.9" stroke="rgb(112, 91, 234)" stroke-width="3"/>
<path d="M1306.6875,229.5 l0,6 l6,0 l0,-6 z" fill="rgb(112, 91, 234)" opacity="0.9" stroke="rgb(112, 91, 234)" stroke-width="3"/>
<text class="gene_0" transform="rotate(90 1309.6875,232.5)" x="1319.6875" y="232.5">
n104
</text>
<path d="M1309.6875,247.5 L1309.6875,232.5 L1309.6875,232.5" fill="none" opacity="0.9" stroke="rgb(112, 91, 234)" stroke-width="3"/>
<path d="M1306.6875,244.5 l0,6 l6,0 l0,-6 z" fill="rgb(112, 91, 234)" opacity="0.9" stroke="rgb(112, 91, 234)" stroke-width="3"/>
<text class="gene_0" transform="rotate(90 1309.6875,247.5)" x="1319.6875" y="247.5">
n98
</text>
<path d="M1309.6875,262.5 L1309.6875,247.5 L1309.6875,247.5" fill="none" opacity="0.9" stroke="rgb(112, 91, 234)" stroke-width="3"/>
<circle cx="1309.6875" cy="262.5" fill="rgb(112, 91, 234)" opacity="0.9" r="4.5" stroke="rgb(112, 91, 234)" stroke-width="1"/>
<text class="gene_0" transform="rotate(90 1309.6875,262.5)" x="1319.6875" y="262.5">
n94
</text>
<path d="M991.875,457.5 L991.875,262.5 L1309.6875,262.5" fill="none" opacity="0.9" stroke="rgb(112, 91, 234)" stroke-width="3"/>
<circle cx="991.875" cy="457.5" fill="rgb(112, 91, 234)" opacity="0.9" r="4.5" stroke="rgb(112, 91, 234)" stroke-width="1"/>
<text class="gene_0" transform="rotate(90 991.875,457.5)" x="1001.875" y="457.5">
r93
</text>
<path d="M671.25,637.5 L671.25,457.5 L991.875,457.5" fill="none" opacity="0.9" stroke="rgb(112, 91, 234)" stroke-width="3"/>
<circle cx="671.25" cy="637.5" fill="rgb(112, 91, 234)" opacity="0.9" r="4.5" stroke="rgb(112, 91, 234)" stroke-width="1"/>
<text class="gene_0" transform="rotate(90 671.25,637.5)" x="681.25" y="637.5">
r91
</text>
<path d="M412.5,802.5 L412.5,637.5 L671.25,637.5" fill="none" opacity="0.9" stroke="rgb(112, 91, 234)" stroke-width="3"/>
<path d="M409.5,799.5 l0,6 l6,0 l0,-6 z" fill="rgb(112, 91, 234)" opacity="0.9" stroke="rgb(112, 91, 234)" stroke-width="3"/>
<text class="gene_0" transform="rotate(90 412.5,802.5)" x="422.5" y="802.5">
n92
</text>
<path d="M412.5,817.5 L412.5,802.5 L412.5,802.5" fill="none" opacity="0.9" stroke="rgb(112, 91, 234)" stroke-width="3"/>
<circle cx="412.5" cy="817.5" fill="rgb(112, 91, 234)" opacity="0.9" r="4.5" stroke="rgb(112, 91, 234)" stroke-width="1"/>
<text class="gene_0" transform="rotate(90 412.5,817.5)" x="422.5" y="817.5">
n88
</text>
<path d="M198.75,952.5 L198.75,817.5 L412.5,817.5" fill="none" opacity="0.9" stroke="rgb(112, 91, 234)" stroke-width="3"/>
<circle cx="198.75" cy="952.5" fill="rgb(112, 91, 234)" opacity="0.9" r="4.5" stroke="rgb(112, 91, 234)" stroke-width="1"/>
<text class="gene_0" transform="rotate(90 198.75,952.5)" x="208.75" y="952.5">
n86
</text>
<path d="M285,1252.5 L285,952.5 L198.75,952.5" fill="none" opacity="0.9" stroke="rgb(112, 91, 234)" stroke-width="3"/>
<path d="M279,1252.5 a3,3,0,0,1,12,0 z" fill="rgb(112, 91, 234)" opacity="0.9" stroke="rgb(112, 91, 234)" stroke-width="1"/>
<text class="gene_0" transform="rotate(90 280,1267.5)" x="280" y="1267.5">
H.sapiens_METTL6_tRNA_N3methylcytidine_methyltransferase_METTL6_i
</text>
<path d="M90,1072.5 L90,952.5 L198.75,952.5" fill="none" opacity="0.9" stroke="rgb(112, 91, 234)" stroke-width="3"/>
<circle cx="90" cy="1072.5" fill="rgb(112, 91, 234)" opacity="0.9" r="4.5" stroke="rgb(112, 91, 234)" stroke-width="1"/>
<text class="gene_0" transform="rotate(90 90,1072.5)" x="100" y="1072.5">
r83
</text>
<path d="M135,1252.5 L135,1072.5 L90,1072.5" fill="none" opacity="0.9" stroke="rgb(112, 91, 234)" stroke-width="3"/>
<path d="M129,1252.5 a3,3,0,0,1,12,0 z" fill="rgb(112, 91, 234)" opacity="0.9" stroke="rgb(112, 91, 234)" stroke-width="1"/>
<text class="gene_0" transform="rotate(90 130,1267.5)" x="130" y="1267.5">
F.catus_METTL6_tRNA_N3methylcytidine_methyltransferase_METTL6_iso
</text>
<path d="M15,1215 L15,1072.5 L90,1072.5" fill="none" opacity="0.9" stroke="rgb(112, 91, 234)" stroke-width="3"/>
<path d="M15,1209 l0,12 M9,1215 l12,0" fill="rgb(112, 91, 234)" opacity="0.9" stroke="rgb(112, 91, 234)" stroke-width="3" transform="rotate(45 15 1215)"/>
<text class="gene_0" transform="rotate(90 15,1215)" x="25" y="1215">
E.caballus*LOST
</text>
<path d="M611.25,952.5 L611.25,817.5 L412.5,817.5" fill="none" opacity="0.9" stroke="rgb(112, 91, 234)" stroke-width="3"/>
<circle cx="611.25" cy="952.5" fill="rgb(112, 91, 234)" opacity="0.9" r="4.5" stroke="rgb(112, 91, 234)" stroke-width="1"/>
<text class="gene_0" transform="rotate(90 611.25,952.5)" x="621.25" y="952.5">
r85
</text>
<path d="M720,1252.5 L720,952.5 L611.25,952.5" fill="none" opacity="0.9" stroke="rgb(112, 91, 234)" stroke-width="3"/>
<path d="M714,1252.5 a3,3,0,0,1,12,0 z" fill="rgb(112, 91, 234)" opacity="0.9" stroke="rgb(112, 91, 234)" stroke-width="1"/>
<text class="gene_0" transform="rotate(90 715,1267.5)" x="715" y="1267.5">
S.townsendi_METTL6_tRNA_N3methylcytidine_methyltransferase_METTL6
</text>
<path d="M517.5,1072.5 L517.5,952.5 L611.25,952.5" fill="none" opacity="0.9" stroke="rgb(112, 91, 234)" stroke-width="3"/>
<path d="M517.5,1066.5 l0,12 M511.5,1072.5 l12,0" fill="rgb(112, 91, 234)" opacity="0.9" stroke="rgb(112, 91, 234)" stroke-width="3" transform="rotate(45 517.5 1072.5)"/>
<text class="gene_0" transform="rotate(90 517.5,1072.5)" x="527.5" y="1072.5">
Archelosauria*LOST
</text>
<path d="M427.5,832.5 L427.5,802.5 L412.5,802.5" fill="none" opacity="0.9" stroke="rgb(112, 91, 234)" stroke-width="3"/>
<circle cx="427.5" cy="832.5" fill="rgb(112, 91, 234)" opacity="0.9" r="4.5" stroke="rgb(112, 91, 234)" stroke-width="1"/>
<text class="gene_0" transform="rotate(90 427.5,832.5)" x="437.5" y="832.5">
r89
</text>
<path d="M596.25,967.5 L596.25,832.5 L427.5,832.5" fill="none" opacity="0.9" stroke="rgb(112, 91, 234)" stroke-width="3"/>
<circle cx="596.25" cy="967.5" fill="rgb(112, 91, 234)" opacity="0.9" r="4.5" stroke="rgb(112, 91, 234)" stroke-width="1"/>
<text class="gene_0" transform="rotate(90 596.25,967.5)" x="606.25" y="967.5">
r87
</text>
<path d="M532.5,1087.5 L532.5,967.5 L596.25,967.5" fill="none" opacity="0.9" stroke="rgb(112, 91, 234)" stroke-width="3"/>
<circle cx="532.5" cy="1087.5" fill="rgb(112, 91, 234)" opacity="0.9" r="4.5" stroke="rgb(112, 91, 234)" stroke-width="1"/>
<text class="gene_0" transform="rotate(90 532.5,1087.5)" x="542.5" y="1087.5">
n91
</text>
<path d="M450,1252.5 L450,1087.5 L532.5,1087.5" fill="none" opacity="0.9" stroke="rgb(112, 91, 234)" stroke-width="3"/>
<path d="M444,1252.5 a3,3,0,0,1,12,0 z" fill="rgb(112, 91, 234)" opacity="0.9" stroke="rgb(112, 91, 234)" stroke-width="1"/>
<text class="gene_0" transform="rotate(90 445,1267.5)" x="445" y="1267.5">
G.gallus_METTL6_tRNA_N3methylcytidine_methyltransferase_METTL6_is
</text>
<path d="M570,1252.5 L570,1087.5 L532.5,1087.5" fill="none" opacity="0.9" stroke="rgb(112, 91, 234)" stroke-width="3"/>
<path d="M564,1252.5 a3,3,0,0,1,12,0 z" fill="rgb(112, 91, 234)" opacity="0.9" stroke="rgb(112, 91, 234)" stroke-width="1"/>
<text class="gene_0" transform="rotate(90 565,1267.5)" x="565" y="1267.5">
C.mydas_METTL6_tRNA_N3methylcytidine_methyltransferase_METTL6_iso
</text>
<path d="M705,1222.5 L705,967.5 L596.25,967.5" fill="none" opacity="0.9" stroke="rgb(112, 91, 234)" stroke-width="3"/>
<path d="M705,1216.5 l0,12 M699,1222.5 l12,0" fill="rgb(112, 91, 234)" opacity="0.9" stroke="rgb(112, 91, 234)" stroke-width="3" transform="rotate(45 705 1222.5)"/>
<text class="gene_0" transform="rotate(90 705,1222.5)" x="715" y="1222.5">
S.townsendi*LOST
</text>
<path d="M213.75,967.5 L213.75,832.5 L427.5,832.5" fill="none" opacity="0.9" stroke="rgb(112, 91, 234)" stroke-width="3"/>
<path d="M213.75,961.5 l0,12 M207.75,967.5 l12,0" fill="rgb(112, 91, 234)" opacity="0.9" stroke="rgb(112, 91, 234)" stroke-width="3" transform="rotate(45 213.75 967.5)"/>
<text class="gene_0" transform="rotate(90 213.75,967.5)" x="223.75" y="967.5">
Boreoeutheria*LOST
</text>
<path d="M915,1200 L915,637.5 L671.25,637.5" fill="none" opacity="0.9" stroke="rgb(112, 91, 234)" stroke-width="3"/>
<path d="M915,1194 l0,12 M909,1200 l12,0" fill="rgb(112, 91, 234)" opacity="0.9" stroke="rgb(112, 91, 234)" stroke-width="3" transform="rotate(45 915 1200)"/>
<text class="gene_0" transform="rotate(90 915,1200)" x="925" y="1200">
X.laevis*LOST
</text>
<path d="M1297.5,637.5 L1297.5,457.5 L991.875,457.5" fill="none" opacity="0.9" stroke="rgb(112, 91, 234)" stroke-width="3"/>
<path d="M1297.5,631.5 l0,12 M1291.5,637.5 l12,0" fill="rgb(112, 91, 234)" opacity="0.9" stroke="rgb(112, 91, 234)" stroke-width="3" transform="rotate(45 1297.5 637.5)"/>
<text class="gene_0" transform="rotate(90 1297.5,637.5)" x="1307.5" y="637.5">
Clupeocephala*LOST
</text>
<path d="M1635,1252.5 L1635,262.5 L1309.6875,262.5" fill="none" opacity="0.9" stroke="rgb(112, 91, 234)" stroke-width="3"/>
<path d="M1629,1252.5 a3,3,0,0,1,12,0 z" fill="rgb(112, 91, 234)" opacity="0.9" stroke="rgb(112, 91, 234)" stroke-width="1"/>
<text class="gene_0" transform="rotate(90 1630,1267.5)" x="1630" y="1267.5">
C.carcharias_mettl6_tRNA_N3methylcytidine_methyltransferase_METTL
</text>
<path d="M1324.6875,277.5 L1324.6875,247.5 L1309.6875,247.5" fill="none" opacity="0.9" stroke="rgb(112, 91, 234)" stroke-width="3"/>
<circle cx="1324.6875" cy="277.5" fill="rgb(112, 91, 234)" opacity="0.9" r="4.5" stroke="rgb(112, 91, 234)" stroke-width="1"/>
<text class="gene_0" transform="rotate(90 1324.6875,277.5)" x="1334.6875" y="277.5">
r99
</text>
<path d="M1006.875,472.5 L1006.875,277.5 L1324.6875,277.5" fill="none" opacity="0.9" stroke="rgb(112, 91, 234)" stroke-width="3"/>
<circle cx="1006.875" cy="472.5" fill="rgb(112, 91, 234)" opacity="0.9" r="4.5" stroke="rgb(112, 91, 234)" stroke-width="1"/>
<text class="gene_0" transform="rotate(90 1006.875,472.5)" x="1016.875" y="472.5">
r97
</text>
<path d="M686.25,652.5 L686.25,472.5 L1006.875,472.5" fill="none" opacity="0.9" stroke="rgb(112, 91, 234)" stroke-width="3"/>
<circle cx="686.25" cy="652.5" fill="rgb(112, 91, 234)" opacity="0.9" r="4.5" stroke="rgb(112, 91, 234)" stroke-width="1"/>
<text class="gene_0" transform="rotate(90 686.25,652.5)" x="696.25" y="652.5">
r95
</text>
<path d="M885,1215 L885,652.5 L686.25,652.5" fill="none" opacity="0.9" stroke="rgb(112, 91, 234)" stroke-width="3"/>
<path d="M882,1212 l0,6 l6,0 l0,-6 z" fill="rgb(112, 91, 234)" opacity="0.9" stroke="rgb(112, 91, 234)" stroke-width="3"/>
<text class="gene_0" transform="rotate(90 885,1215)" x="895" y="1215">
n97
</text>
<path d="M900,1252.5 L900,1215 L885,1215" fill="none" opacity="0.9" stroke="rgb(112, 91, 234)" stroke-width="3"/>
<path d="M894,1252.5 a3,3,0,0,1,12,0 z" fill="rgb(112, 91, 234)" opacity="0.9" stroke="rgb(112, 91, 234)" stroke-width="1"/>
<text class="gene_0" transform="rotate(90 895,1267.5)" x="895" y="1267.5">
X.laevis_mettl6.L_tRNA_N3methylcytidine_methyltransferase_METTL6_
</text>
<path d="M885,1252.5 L885,1215 L885,1215" fill="none" opacity="0.9" stroke="rgb(112, 91, 234)" stroke-width="3"/>
<path d="M879,1252.5 a3,3,0,0,1,12,0 z" fill="rgb(112, 91, 234)" opacity="0.9" stroke="rgb(112, 91, 234)" stroke-width="1"/>
<text class="gene_0" transform="rotate(90 880,1267.5)" x="880" y="1267.5">
X.laevis_mettl6.S_tRNA_N3methylcytidine_methyltransferase_METTL6
</text>
<path d="M442.5,847.5 L442.5,652.5 L686.25,652.5" fill="none" opacity="0.9" stroke="rgb(112, 91, 234)" stroke-width="3"/>
<path d="M442.5,841.5 l0,12 M436.5,847.5 l12,0" fill="rgb(112, 91, 234)" opacity="0.9" stroke="rgb(112, 91, 234)" stroke-width="3" transform="rotate(45 442.5 847.5)"/>
<text class="gene_0" transform="rotate(90 442.5,847.5)" x="452.5" y="847.5">
Amniota*LOST
</text>
<path d="M1282.5,652.5 L1282.5,472.5 L1006.875,472.5" fill="none" opacity="0.9" stroke="rgb(112, 91, 234)" stroke-width="3"/>
<path d="M1282.5,646.5 l0,12 M1276.5,652.5 l12,0" fill="rgb(112, 91, 234)" opacity="0.9" stroke="rgb(112, 91, 234)" stroke-width="3" transform="rotate(45 1282.5 652.5)"/>
<text class="gene_0" transform="rotate(90 1282.5,652.5)" x="1292.5" y="652.5">
Clupeocephala*LOST
</text>
<path d="M1620,1215 L1620,277.5 L1324.6875,277.5" fill="none" opacity="0.9" stroke="rgb(112, 91, 234)" stroke-width="3"/>
<path d="M1620,1209 l0,12 M1614,1215 l12,0" fill="rgb(112, 91, 234)" opacity="0.9" stroke="rgb(112, 91, 234)" stroke-width="3" transform="rotate(45 1620 1215)"/>
<text class="gene_0" transform="rotate(90 1620,1215)" x="1630" y="1215">
C.carcharias*LOST
</text>
<path d="M1339.6875,292.5 L1339.6875,232.5 L1309.6875,232.5" fill="none" opacity="0.9" stroke="rgb(112, 91, 234)" stroke-width="3"/>
<circle cx="1339.6875" cy="292.5" fill="rgb(112, 91, 234)" opacity="0.9" r="4.5" stroke="rgb(112, 91, 234)" stroke-width="1"/>
<text class="gene_0" transform="rotate(90 1339.6875,292.5)" x="1349.6875" y="292.5">
r105
</text>
<path d="M1021.875,487.5 L1021.875,292.5 L1339.6875,292.5" fill="none" opacity="0.9" stroke="rgb(112, 91, 234)" stroke-width="3"/>
<circle cx="1021.875" cy="487.5" fill="rgb(112, 91, 234)" opacity="0.9" r="4.5" stroke="rgb(112, 91, 234)" stroke-width="1"/>
<text class="gene_0" transform="rotate(90 1021.875,487.5)" x="1031.875" y="487.5">
r103
</text>
<path d="M1267.5,667.5 L1267.5,487.5 L1021.875,487.5" fill="none" opacity="0.9" stroke="rgb(112, 91, 234)" stroke-width="3"/>
<circle cx="1267.5" cy="667.5" fill="rgb(112, 91, 234)" opacity="0.9" r="4.5" stroke="rgb(112, 91, 234)" stroke-width="1"/>
<text class="gene_0" transform="rotate(90 1267.5,667.5)" x="1277.5" y="667.5">
n103
</text>
<path d="M1177.5,787.5 L1177.5,667.5 L1267.5,667.5" fill="none" opacity="0.9" stroke="rgb(112, 91, 234)" stroke-width="3"/>
<circle cx="1177.5" cy="787.5" fill="rgb(112, 91, 234)" opacity="0.9" r="4.5" stroke="rgb(112, 91, 234)" stroke-width="1"/>
<text class="gene_0" transform="rotate(90 1177.5,787.5)" x="1187.5" y="787.5">
r101
</text>
<path d="M1260,1192.5 L1260,787.5 L1177.5,787.5" fill="none" opacity="0.9" stroke="rgb(112, 91, 234)" stroke-width="3"/>
<path d="M1257,1189.5 l0,6 l6,0 l0,-6 z" fill="rgb(112, 91, 234)" opacity="0.9" stroke="rgb(112, 91, 234)" stroke-width="3"/>
<text class="gene_0" transform="rotate(90 1260,1192.5)" x="1270" y="1192.5">
n101
</text>
<path d="M1275,1252.5 L1275,1192.5 L1260,1192.5" fill="none" opacity="0.9" stroke="rgb(112, 91, 234)" stroke-width="3"/>
<path d="M1269,1252.5 a3,3,0,0,1,12,0 z" fill="rgb(112, 91, 234)" opacity="0.9" stroke="rgb(112, 91, 234)" stroke-width="1"/>
<text class="gene_0" transform="rotate(90 1270,1267.5)" x="1270" y="1267.5">
S.salar_metl6_Methyltransferaselike_protein_6
</text>
<path d="M1260,1252.5 L1260,1192.5 L1260,1192.5" fill="none" opacity="0.9" stroke="rgb(112, 91, 234)" stroke-width="3"/>
<path d="M1254,1252.5 a3,3,0,0,1,12,0 z" fill="rgb(112, 91, 234)" opacity="0.9" stroke="rgb(112, 91, 234)" stroke-width="1"/>
<text class="gene_0" transform="rotate(90 1255,1267.5)" x="1255" y="1267.5">
S.salar_LOC106581233_tRNA_N3methylcytidine_methyltransferase_METT
</text>
<path d="M1072.5,1207.5 L1072.5,787.5 L1177.5,787.5" fill="none" opacity="0.9" stroke="rgb(112, 91, 234)" stroke-width="3"/>
<path d="M1072.5,1201.5 l0,12 M1066.5,1207.5 l12,0" fill="rgb(112, 91, 234)" opacity="0.9" stroke="rgb(112, 91, 234)" stroke-width="3" transform="rotate(45 1072.5 1207.5)"/>
<text class="gene_0" transform="rotate(90 1072.5,1207.5)" x="1082.5" y="1207.5">
G.aculeatus*LOST
</text>
<path d="M1432.5,1252.5 L1432.5,667.5 L1267.5,667.5" fill="none" opacity="0.9" stroke="rgb(112, 91, 234)" stroke-width="3"/>
<path d="M1426.5,1252.5 a3,3,0,0,1,12,0 z" fill="rgb(112, 91, 234)" opacity="0.9" stroke="rgb(112, 91, 234)" stroke-width="1"/>
<text class="gene_0" transform="rotate(90 1427.5,1267.5)" x="1427.5" y="1267.5">
D.rerio_mettl6_tRNA_N3methylcytidine_methyltransferase_METTL6
</text>
<path d="M701.25,667.5 L701.25,487.5 L1021.875,487.5" fill="none" opacity="0.9" stroke="rgb(112, 91, 234)" stroke-width="3"/>
<path d="M701.25,661.5 l0,12 M695.25,667.5 l12,0" fill="rgb(112, 91, 234)" opacity="0.9" stroke="rgb(112, 91, 234)" stroke-width="3" transform="rotate(45 701.25 667.5)"/>
<text class="gene_0" transform="rotate(90 701.25,667.5)" x="711.25" y="667.5">
Tetrapoda*LOST
</text>
<path d="M1605,1230 L1605,292.5 L1339.6875,292.5" fill="none" opacity="0.9" stroke="rgb(112, 91, 234)" stroke-width="3"/>
<path d="M1605,1224 l0,12 M1599,1230 l12,0" fill="rgb(112, 91, 234)" opacity="0.9" stroke="rgb(112, 91, 234)" stroke-width="3" transform="rotate(45 1605 1230)"/>
<text class="gene_0" transform="rotate(90 1605,1230)" x="1615" y="1230">
C.carcharias*LOST
</text>
<path d="M1354.6875,307.5 L1354.6875,217.5 L1309.6875,217.5" fill="none" opacity="0.9" stroke="rgb(112, 91, 234)" stroke-width="3"/>
<circle cx="1354.6875" cy="307.5" fill="rgb(112, 91, 234)" opacity="0.9" r="4.5" stroke="rgb(112, 91, 234)" stroke-width="1"/>
<text class="gene_0" transform="rotate(90 1354.6875,307.5)" x="1364.6875" y="307.5">
r113
</text>
<path d="M1036.875,502.5 L1036.875,307.5 L1354.6875,307.5" fill="none" opacity="0.9" stroke="rgb(112, 91, 234)" stroke-width="3"/>
<circle cx="1036.875" cy="502.5" fill="rgb(112, 91, 234)" opacity="0.9" r="4.5" stroke="rgb(112, 91, 234)" stroke-width="1"/>
<text class="gene_0" transform="rotate(90 1036.875,502.5)" x="1046.875" y="502.5">
r111
</text>
<path d="M1252.5,682.5 L1252.5,502.5 L1036.875,502.5" fill="none" opacity="0.9" stroke="rgb(112, 91, 234)" stroke-width="3"/>
<circle cx="1252.5" cy="682.5" fill="rgb(112, 91, 234)" opacity="0.9" r="4.5" stroke="rgb(112, 91, 234)" stroke-width="1"/>
<text class="gene_0" transform="rotate(90 1252.5,682.5)" x="1262.5" y="682.5">
r109
</text>
<path d="M1192.5,802.5 L1192.5,682.5 L1252.5,682.5" fill="none" opacity="0.9" stroke="rgb(112, 91, 234)" stroke-width="3"/>
<circle cx="1192.5" cy="802.5" fill="rgb(112, 91, 234)" opacity="0.9" r="4.5" stroke="rgb(112, 91, 234)" stroke-width="1"/>
<text class="gene_0" transform="rotate(90 1192.5,802.5)" x="1202.5" y="802.5">
r107
</text>
<path d="M1087.5,1252.5 L1087.5,802.5 L1192.5,802.5" fill="none" opacity="0.9" stroke="rgb(112, 91, 234)" stroke-width="3"/>
<path d="M1081.5,1252.5 a3,3,0,0,1,12,0 z" fill="rgb(112, 91, 234)" opacity="0.9" stroke="rgb(112, 91, 234)" stroke-width="1"/>
<text class="gene_0" transform="rotate(90 1082.5,1267.5)" x="1082.5" y="1267.5">
G.aculeatus_mettl6_tRNA_N3methylcytidine_methyltransferase_METTL6
</text>
<path d="M1245,1237.5 L1245,802.5 L1192.5,802.5" fill="none" opacity="0.9" stroke="rgb(112, 91, 234)" stroke-width="3"/>
<path d="M1245,1231.5 l0,12 M1239,1237.5 l12,0" fill="rgb(112, 91, 234)" opacity="0.9" stroke="rgb(112, 91, 234)" stroke-width="3" transform="rotate(45 1245 1237.5)"/>
<text class="gene_0" transform="rotate(90 1245,1237.5)" x="1255" y="1237.5">
S.salar*LOST
</text>
<path d="M1417.5,1222.5 L1417.5,682.5 L1252.5,682.5" fill="none" opacity="0.9" stroke="rgb(112, 91, 234)" stroke-width="3"/>
<path d="M1417.5,1216.5 l0,12 M1411.5,1222.5 l12,0" fill="rgb(112, 91, 234)" opacity="0.9" stroke="rgb(112, 91, 234)" stroke-width="3" transform="rotate(45 1417.5 1222.5)"/>
<text class="gene_0" transform="rotate(90 1417.5,1222.5)" x="1427.5" y="1222.5">
D.rerio*LOST
</text>
<path d="M716.25,682.5 L716.25,502.5 L1036.875,502.5" fill="none" opacity="0.9" stroke="rgb(112, 91, 234)" stroke-width="3"/>
<path d="M716.25,676.5 l0,12 M710.25,682.5 l12,0" fill="rgb(112, 91, 234)" opacity="0.9" stroke="rgb(112, 91, 234)" stroke-width="3" transform="rotate(45 716.25 682.5)"/>
<text class="gene_0" transform="rotate(90 716.25,682.5)" x="726.25" y="682.5">
Tetrapoda*LOST
</text>
<path d="M1590,1245 L1590,307.5 L1354.6875,307.5" fill="none" opacity="0.9" stroke="rgb(112, 91, 234)" stroke-width="3"/>
<path d="M1590,1239 l0,12 M1584,1245 l12,0" fill="rgb(112, 91, 234)" opacity="0.9" stroke="rgb(112, 91, 234)" stroke-width="3" transform="rotate(45 1590 1245)"/>
<text class="gene_0" transform="rotate(90 1590,1245)" x="1600" y="1245">
C.carcharias*LOST
</text>
</g>
</svg>